<svg width="16" height="16" viewBox="0 0 16 16" fill="none" xmlns="http://www.w3.org/2000/svg">
<g clip-path="url(#clip0_45_1264)">
<path d="M1.99996 1.33333H4.33329M15.3333 12.6667C15.3333 13.0203 15.1928 13.3594 14.9428 13.6095C14.6927 13.8595 14.3536 14 14 14H1.99996C1.64634 14 1.3072 13.8595 1.05715 13.6095C0.807102 13.3594 0.666626 13.0203 0.666626 12.6667V4.66666C0.666626 3.93028 1.26358 3.33333 1.99996 3.33333H14C14.3536 3.33333 14.6927 3.4738 14.9428 3.72385C15.1928 3.9739 15.3333 4.31304 15.3333 4.66666V12.6667Z" stroke="#343A3F" stroke-width="1.5" stroke-linecap="round" stroke-linejoin="round"/>
<path d="M5.70007 10.0163C5.99429 10.5177 6.44431 10.9092 6.98161 11.1313C7.5189 11.3533 8.11404 11.3936 8.67639 11.2462C9.23874 11.0987 9.7375 10.7716 10.0967 10.3144C10.4559 9.85735 10.6559 9.29537 10.6663 8.7141C10.6766 8.13283 10.4967 7.56411 10.1539 7.09453C9.81118 6.62496 9.32436 6.28026 8.7676 6.11292C8.21084 5.94558 7.61465 5.96477 7.0698 6.16757C6.52496 6.37037 6.06131 6.74567 5.74947 7.23631" stroke="#343A3F" stroke-width="1.5" stroke-linecap="round" stroke-linejoin="round"/>
</g>
<defs>
<clipPath id="clip0_45_1264">
<rect width="16" height="16" fill="white"/>
</clipPath>
</defs>
</svg>
