<?xml version="1.0"?>
<svg width="16" height="16" xmlns="http://www.w3.org/2000/svg" xmlns:svg="http://www.w3.org/2000/svg">
 <g class="layer">
  <path d="m10.07,0.87c-0.27,-0.28 -0.59,-0.49 -0.95,-0.64c-0.35,-0.15 -0.73,-0.23 -1.12,-0.23c-0.39,0 -0.77,0.08 -1.12,0.23c-0.36,0.15 -0.68,0.36 -0.95,0.64l-0.62,0.64l-0.89,-0.01c-0.38,-0.01 -0.77,0.06 -1.12,0.21c-0.36,0.15 -0.68,0.36 -0.96,0.63c-0.27,0.28 -0.48,0.6 -0.63,0.96c-0.14,0.35 -0.22,0.74 -0.21,1.12l0.01,0.89l-0.64,0.62c-0.27,0.27 -0.49,0.59 -0.64,0.95c-0.15,0.35 -0.23,0.73 -0.23,1.12c0,0.39 0.08,0.77 0.23,1.12c0.15,0.36 0.37,0.68 0.64,0.95l0.64,0.62l-0.01,0.89c-0.01,0.38 0.07,0.77 0.21,1.12c0.15,0.36 0.36,0.68 0.63,0.96c0.28,0.27 0.6,0.48 0.96,0.63c0.35,0.15 0.74,0.22 1.12,0.21l0.89,-0.01l0.62,0.64c0.27,0.27 0.59,0.49 0.95,0.64c0.35,0.15 0.73,0.23 1.12,0.23c0.39,0 0.77,-0.08 1.12,-0.23c0.36,-0.15 0.68,-0.37 0.95,-0.64l0.62,-0.64l0.89,0.01c0.38,0.01 0.77,-0.06 1.12,-0.21c0.36,-0.15 0.68,-0.36 0.96,-0.63c0.27,-0.28 0.48,-0.6 0.63,-0.96c0.15,-0.35 0.22,-0.74 0.21,-1.12l-0.01,-0.89l0.64,-0.62c0.27,-0.27 0.49,-0.59 0.64,-0.95c0.15,-0.35 0.23,-0.73 0.23,-1.12c0,-0.39 -0.08,-0.77 -0.23,-1.12c-0.15,-0.36 -0.37,-0.68 -0.64,-0.95l-0.64,-0.62l0.01,-0.89c0.01,-0.38 -0.06,-0.77 -0.21,-1.12c-0.15,-0.36 -0.36,-0.68 -0.63,-0.96c-0.28,-0.27 -0.6,-0.48 -0.96,-0.63c-0.35,-0.15 -0.74,-0.22 -1.12,-0.21l-0.89,0.01l-0.62,-0.64l0,0z" fill="black" id="svg_1"/>
 </g>
 <g class="layer">
  <g id="svg_2">
   <svg height="16" id="svg_3" viewBox="0 0 16 16" width="16" xmlns="http://www.w3.org/2000/svg">
    <path d="m17,10l0,-3c0,-1.33 -0.52,-2.59 -1.46,-3.53c-0.94,-0.94 -2.22,-1.47 -3.54,-1.47c-1.32,0 -2.6,0.53 -3.54,1.47c-0.94,0.94 -1.46,2.2 -1.46,3.53l0,3l-2,0c-1.11,0 -2,0.9 -2,2c0,13.79 18,13.79 18,0c0,-1.1 -0.89,-2 -2,-2l-9,0" fill="none" id="svg_4" stroke="white" stroke-linecap="round" stroke-linejoin="round" stroke-miterlimit="4" stroke-width="2" transform="matrix(0.333333, 0, 0, 0.333333, 4, 4)"/>
   </svg>
  </g>
 </g>
</svg>