<svg width="16" height="16" viewBox="0 0 16 16" fill="none" xmlns="http://www.w3.org/2000/svg">
<g clip-path="url(#clip0_38_1292)">
<path d="M10.067 0.869997C9.79788 0.594537 9.47637 0.375657 9.1214 0.22622C8.76644 0.0767823 8.38519 -0.000198364 8.00005 -0.000198364C7.61491 -0.000198364 7.23366 0.0767823 6.8787 0.22622C6.52373 0.375657 6.20222 0.594537 5.93305 0.869997L5.31105 1.508L4.42105 1.497C4.0358 1.49244 3.65353 1.56495 3.29671 1.71028C2.9399 1.85562 2.61574 2.07082 2.34331 2.34326C2.07088 2.61569 1.85567 2.93984 1.71034 3.29666C1.56501 3.65347 1.49249 4.03575 1.49705 4.421L1.50705 5.311L0.87105 5.933C0.59559 6.20217 0.37671 6.52368 0.227273 6.87864C0.0778352 7.23361 0.000854492 7.61486 0.000854492 8C0.000854492 8.38513 0.0778352 8.76639 0.227273 9.12135C0.37671 9.47631 0.59559 9.79783 0.87105 10.067L1.50805 10.689L1.49705 11.579C1.49249 11.9642 1.56501 12.3465 1.71034 12.7033C1.85567 13.0602 2.07088 13.3843 2.34331 13.6567C2.61574 13.9292 2.9399 14.1444 3.29671 14.2897C3.65353 14.435 4.0358 14.5076 4.42105 14.503L5.31105 14.493L5.93305 15.129C6.20222 15.4045 6.52373 15.6233 6.8787 15.7728C7.23366 15.9222 7.61491 15.9992 8.00005 15.9992C8.38519 15.9992 8.76644 15.9222 9.1214 15.7728C9.47637 15.6233 9.79788 15.4045 10.067 15.129L10.689 14.492L11.5791 14.503C11.9643 14.5076 12.3466 14.435 12.7034 14.2897C13.0602 14.1444 13.3844 13.9292 13.6568 13.6567C13.9292 13.3843 14.1444 13.0602 14.2898 12.7033C14.4351 12.3465 14.5076 11.9642 14.503 11.579L14.493 10.689L15.129 10.067C15.4045 9.79783 15.6234 9.47631 15.7728 9.12135C15.9223 8.76639 15.9992 8.38513 15.9992 8C15.9992 7.61486 15.9223 7.23361 15.7728 6.87864C15.6234 6.52368 15.4045 6.20217 15.129 5.933L14.492 5.311L14.503 4.421C14.5076 4.03575 14.4351 3.65347 14.2898 3.29666C14.1444 2.93984 13.9292 2.61569 13.6568 2.34326C13.3844 2.07082 13.0602 1.85562 12.7034 1.71028C12.3466 1.56495 11.9643 1.49244 11.5791 1.497L10.689 1.507L10.067 0.870997V0.869997ZM10.354 6.854L7.35405 9.854C7.3076 9.90056 7.25243 9.9375 7.19168 9.96271C7.13094 9.98792 7.06582 10.0009 7.00005 10.0009C6.93428 10.0009 6.86916 9.98792 6.80842 9.96271C6.74767 9.9375 6.6925 9.90056 6.64605 9.854L5.14605 8.354C5.09956 8.30751 5.06269 8.25232 5.03753 8.19158C5.01237 8.13084 4.99942 8.06574 4.99942 8C4.99942 7.93425 5.01237 7.86915 5.03753 7.80841C5.06269 7.74767 5.09956 7.69248 5.14605 7.646C5.19254 7.59951 5.24773 7.56263 5.30847 7.53747C5.36921 7.51231 5.43431 7.49937 5.50005 7.49937C5.56579 7.49937 5.63089 7.51231 5.69163 7.53747C5.75237 7.56263 5.80756 7.59951 5.85405 7.646L7.00005 8.793L9.64605 6.146C9.73994 6.05211 9.86727 5.99937 10 5.99937C10.1328 5.99937 10.2602 6.05211 10.354 6.146C10.4479 6.23988 10.5007 6.36722 10.5007 6.5C10.5007 6.63277 10.4479 6.76011 10.354 6.854Z" fill="black"/>
</g>
<defs>
<clipPath id="clip0_38_1292">
<rect width="16" height="16" fill="white"/>
</clipPath>
</defs>
</svg>
