<svg width="46" height="46" viewBox="0 0 46 46" fill="none" xmlns="http://www.w3.org/2000/svg">
<circle cx="23" cy="23" r="23" fill="#F3F6F8"/>
<path fill-rule="evenodd" clip-rule="evenodd" d="M33 30.5198C29.9099 33.9043 25.6279 36 20.8958 36C17.6362 36 14.5901 35.0056 12 33.2805C13.6293 31.5187 15.76 30.3663 18.0682 30.0249C18.4435 29.9442 18.8563 30.0652 19.1566 30.3075C20.7329 31.5588 22.6094 32.2046 24.561 32.2046C26.5127 32.2046 28.3891 31.5588 29.9654 30.3075C30.2657 30.0652 30.6785 29.9846 31.0538 30.0249C31.7215 30.1236 32.3724 30.2902 33 30.5198Z" fill="#293148" fill-opacity="0.45"/>
<path d="M24.2739 10C19.3219 10 15.2739 14.048 15.2739 19C15.2739 23.952 19.3219 28 24.2739 28C29.2259 28 33.2739 23.952 33.2739 19C33.2739 14.048 29.2259 10 24.2739 10Z" fill="#293148" fill-opacity="0.45"/>
</svg>
