<svg width="24" height="24" viewBox="0 0 24 24" fill="none" xmlns="http://www.w3.org/2000/svg">
<path fill-rule="evenodd" clip-rule="evenodd" d="M11.2929 4.29289C11.6834 3.90237 12.3166 3.90237 12.7071 4.29289L16.7071 8.29289C17.0976 8.68342 17.0976 9.31658 16.7071 9.70711C16.3166 10.0976 15.6834 10.0976 15.2929 9.70711L11.2929 5.70711C10.9024 5.31658 10.9024 4.68342 11.2929 4.29289ZM4 12C4 11.4477 4.44772 11 5 11H19C19.4045 11 19.7691 11.2436 19.9239 11.6173C20.0787 11.991 19.9931 12.4211 19.7071 12.7071L12.7071 19.7071C12.3166 20.0976 11.6834 20.0976 11.2929 19.7071C10.9024 19.3166 10.9024 18.6834 11.2929 18.2929L16.5858 13H5C4.44772 13 4 12.5523 4 12Z" fill="black"/>
</svg>
