<svg width="24" height="24" viewBox="0 0 24 24" fill="none" xmlns="http://www.w3.org/2000/svg">
<path fill-rule="evenodd" clip-rule="evenodd" d="M9 4C9 3.44772 9.44772 3 10 3H13.5C14.0523 3 14.5 3.44772 14.5 4V19H16V10C16 9.44772 16.4477 9 17 9H20.5C21.0523 9 21.5 9.44772 21.5 10V20C21.5 20.5523 21.0523 21 20.5 21C19.9477 21 19.5 20.5523 19.5 20V11H18V20C18 20.5523 17.5523 21 17 21H13.5C12.9477 21 12.5 20.5523 12.5 20V5H11V20C11 20.5523 10.5523 21 10 21H6.5C5.94772 21 5.5 20.5523 5.5 20V15H4V20C4 20.5523 3.55228 21 3 21C2.44772 21 2 20.5523 2 20V14C2 13.4477 2.44772 13 3 13H6.5C7.05228 13 7.5 13.4477 7.5 14V19H9V4Z" fill="black"/>
</svg>
