<svg width="24" height="24" viewBox="0 0 24 24" fill="none" xmlns="http://www.w3.org/2000/svg">
<path fill-rule="evenodd" clip-rule="evenodd" d="M12 4C7.58172 4 4 7.58172 4 12C4 16.4183 7.58172 20 12 20C16.4183 20 20 16.4183 20 12C20 7.58172 16.4183 4 12 4ZM2 12C2 6.47715 6.47715 2 12 2C17.5228 2 22 6.47715 22 12C22 17.5228 17.5228 22 12 22C6.47715 22 2 17.5228 2 12Z" fill="black"/>
<path fill-rule="evenodd" clip-rule="evenodd" d="M10.2864 7.46553C11.089 7.0515 11.9898 6.90672 12.8752 7.05898C13.7592 7.211 14.5677 7.64843 15.2099 8.29567C15.5988 8.68773 15.5963 9.32089 15.2043 9.70987C14.8122 10.0989 14.1791 10.0964 13.7901 9.7043C13.4219 9.33321 12.9844 9.10712 12.5362 9.03005C12.0895 8.95323 11.6287 9.02353 11.2034 9.24294C10.7757 9.46358 10.3924 9.83156 10.1153 10.322C9.83789 10.813 9.68494 11.396 9.68494 12C9.68494 12.6039 9.83789 13.187 10.1153 13.678C10.3924 14.1684 10.7757 14.5364 11.2034 14.757C11.6287 14.9764 12.0895 15.0467 12.5362 14.9699C12.9844 14.8929 13.4219 14.6668 13.7901 14.2957C14.1791 13.9036 14.8122 13.9011 15.2043 14.2901C15.5963 14.6791 15.5988 15.3122 15.2099 15.7043C14.5677 16.3515 13.7592 16.789 12.8752 16.941C11.9898 17.0933 11.089 16.9485 10.2864 16.5344C9.48628 16.1216 8.82772 15.4647 8.37406 14.6618C7.9207 13.8595 7.68494 12.9356 7.68494 12C7.68494 11.0643 7.9207 10.1405 8.37406 9.33814C8.82772 8.53524 9.48628 7.87833 10.2864 7.46553Z" fill="black"/>
</svg>
