<svg width="24" height="24" viewBox="0 0 24 24" fill="none" xmlns="http://www.w3.org/2000/svg">
<g clip-path="url(#clip0_87_2423)">
<path fill-rule="evenodd" clip-rule="evenodd" d="M6.13 0C6.68228 0 7.13 0.447715 7.13 1V3C7.13 3.55228 6.68228 4 6.13 4C5.57772 4 5.13 3.55228 5.13 3V1C5.13 0.447715 5.57772 0 6.13 0ZM6 8C6.55228 8 7 8.44772 7 9V16C7 16.2652 7.10536 16.5196 7.29289 16.7071C7.48043 16.8946 7.73478 17 8 17H23C23.5523 17 24 17.4477 24 18C24 18.5523 23.5523 19 23 19H8C7.20435 19 6.44129 18.6839 5.87868 18.1213C5.31607 17.5587 5 16.7957 5 16V9C5 8.44772 5.44772 8 6 8Z" fill="black"/>
<path fill-rule="evenodd" clip-rule="evenodd" d="M16 5C16.7957 5 17.5587 5.31607 18.1213 5.87868C18.6839 6.44129 19 7.20435 19 8V15C19 15.5523 18.5523 16 18 16C17.4477 16 17 15.5523 17 15V8C17 7.73478 16.8946 7.48043 16.7071 7.29289C16.5204 7.1062 16.2675 7.00095 16.0036 7.00001L1.00867 7.12996C0.456403 7.13475 0.00482466 6.69093 3.83509e-05 6.13867C-0.0047479 5.5864 0.43907 5.13482 0.991334 5.13004L16 5ZM18 20C18.5523 20 19 20.4477 19 21V23C19 23.5523 18.5523 24 18 24C17.4477 24 17 23.5523 17 23V21C17 20.4477 17.4477 20 18 20Z" fill="black"/>
</g>
<defs>
<clipPath id="clip0_87_2423">
<rect width="24" height="24" fill="white"/>
</clipPath>
</defs>
</svg>
