<svg width="24" height="24" viewBox="0 0 24 24" fill="none" xmlns="http://www.w3.org/2000/svg">
<g clip-path="url(#clip0_5_153)">
<path fill-rule="evenodd" clip-rule="evenodd" d="M2.14074 12C2.20271 12.1071 2.27614 12.2309 2.36088 12.3687C2.67952 12.8871 3.15481 13.599 3.77668 14.3658C5.56058 16.5654 8.37047 19 12 19C15.6295 19 18.4394 16.5654 20.2233 14.3658C20.5712 13.9369 21.2009 13.8712 21.6299 14.219C22.0588 14.5669 22.1246 15.1967 21.7767 15.6256C19.8766 17.9684 16.5534 21 12 21C7.44661 21 4.12338 17.9684 2.22332 15.6256C1.53577 14.7778 1.01106 13.992 0.657059 13.4161C0.479779 13.1277 0.344547 12.8907 0.252411 12.7234C0.206324 12.6397 0.170962 12.5734 0.146457 12.5266C0.134203 12.5032 0.124659 12.4847 0.117841 12.4714L0.109658 12.4553L0.107103 12.4503L0.105708 12.4475C0.10564 12.4473 0.105573 12.4472 1 12C0.105573 11.5528 0.105742 11.5524 0.105926 11.5521L0.10754 11.5489L0.110991 11.542L0.122339 11.5198C0.131876 11.5013 0.145357 11.4753 0.162754 11.4424C0.197541 11.3767 0.248024 11.2832 0.313972 11.166C0.445792 10.9316 0.639851 10.6015 0.894336 10.2075C1.40207 9.42131 2.15684 8.3706 3.14546 7.31606C5.10448 5.22644 8.10049 3 12 3C15.8995 3 18.8955 5.22644 20.8545 7.31606C21.8432 8.3706 22.5979 9.42131 23.1057 10.2075C23.3601 10.6015 23.5542 10.9316 23.686 11.166C23.752 11.2832 23.8025 11.3767 23.8372 11.4424C23.8546 11.4753 23.8681 11.5013 23.8777 11.5198L23.889 11.542L23.8925 11.5489L23.8936 11.5512C23.8938 11.5516 23.8944 11.5528 23.0357 11.9821L23.8944 11.5528C24.1414 12.0468 23.9412 12.6474 23.4472 12.8944C22.9534 13.1413 22.353 12.9413 22.1058 12.4477M2.14074 12C2.25003 11.8111 2.39492 11.5704 2.57441 11.2925C3.03544 10.5787 3.71817 9.6294 4.60454 8.68394C6.39552 6.77356 8.89951 5 12 5C15.1005 5 17.6045 6.77356 19.3955 8.68394C20.2818 9.6294 20.9646 10.5787 21.4256 11.2925C21.6555 11.6485 21.8286 11.9434 21.9429 12.1465C22 12.248 22.0423 12.3264 22.0695 12.3779C22.0831 12.4036 22.0929 12.4226 22.099 12.4343L22.1058 12.4477M1 12L0.105708 12.4475C-0.0350553 12.166 -0.0348382 11.8336 0.105926 11.5521L1 12Z" fill="black"/>
<path fill-rule="evenodd" clip-rule="evenodd" d="M11.3981 8.1308C12.2416 7.90962 13.1343 7.97016 13.9402 8.3032C14.7462 8.63624 15.4212 9.22353 15.8625 9.97566C16.142 10.452 15.9825 11.0647 15.5061 11.3442C15.0298 11.6237 14.4171 11.4642 14.1376 10.9878C13.9169 10.6118 13.5794 10.3181 13.1764 10.1516C12.7734 9.98508 12.3271 9.95481 11.9053 10.0654C11.4836 10.176 11.1095 10.4214 10.8401 10.7642C10.5707 11.107 10.4207 11.5285 10.4129 11.9645C10.4052 12.4004 10.5401 12.827 10.7972 13.1791C11.0542 13.5313 11.4194 13.7899 11.8369 13.9154C12.2545 14.0409 12.7016 14.0265 13.1103 13.8744C13.5189 13.7223 13.8666 13.4408 14.1005 13.0728C14.3968 12.6067 15.0148 12.469 15.4809 12.7653C15.947 13.0615 16.0847 13.6795 15.7884 14.1456C15.3207 14.8816 14.6252 15.4445 13.8079 15.7487C12.9907 16.0529 12.0964 16.0817 11.2612 15.8307C10.4261 15.5797 9.69587 15.0627 9.18174 14.3583C8.6676 13.6539 8.39774 12.8008 8.41323 11.9289C8.42872 11.057 8.72872 10.2141 9.26755 9.52842C9.80639 8.84277 10.5545 8.35198 11.3981 8.1308Z" fill="black"/>
</g>
<defs>
<clipPath id="clip0_5_153">
<rect width="24" height="24" fill="white"/>
</clipPath>
</defs>
</svg>
