<svg width="24" height="24" viewBox="0 0 24 24" fill="none" xmlns="http://www.w3.org/2000/svg">
<path fill-rule="evenodd" clip-rule="evenodd" d="M12 3C7.02944 3 3 7.02944 3 12C3 16.9706 7.02944 21 12 21C16.9706 21 21 16.9706 21 12C21 7.02944 16.9706 3 12 3ZM1 12C1 5.92487 5.92487 1 12 1C18.0751 1 23 5.92487 23 12C23 18.0751 18.0751 23 12 23C5.92487 23 1 18.0751 1 12Z" fill="black"/>
<path fill-rule="evenodd" clip-rule="evenodd" d="M10.3389 4.12183C10.824 4.386 11.003 4.99333 10.7388 5.47833C9.81293 7.17819 9.23756 9.05618 9.05759 11H14.9424C14.7624 9.05618 14.1871 7.17819 13.2612 5.47833C12.997 4.99333 13.176 4.386 13.6611 4.12183C14.1461 3.85765 14.7534 4.03667 15.0176 4.52168C16.1021 6.5129 16.7648 8.71869 16.9499 11H19C19.5523 11 20 11.4477 20 12C20 12.5523 19.5523 13 19 13H16.9499C16.7648 15.2813 16.1021 17.4871 15.0176 19.4783C14.7534 19.9633 14.1461 20.1424 13.6611 19.8782C13.176 19.614 12.997 19.0067 13.2612 18.5217C14.1871 16.8218 14.7624 14.9438 14.9424 13H9.05759C9.23756 14.9438 9.81293 16.8218 10.7388 18.5217C11.003 19.0067 10.824 19.614 10.3389 19.8782C9.85394 20.1424 9.24661 19.9633 8.98244 19.4783C7.89786 17.4871 7.2352 15.2813 7.05009 13H5C4.44772 13 4 12.5523 4 12C4 11.4477 4.44772 11 5 11H7.05009C7.2352 8.71869 7.89786 6.5129 8.98244 4.52168C9.24661 4.03667 9.85394 3.85765 10.3389 4.12183Z" fill="black"/>
</svg>
