<svg width="24" height="24" viewBox="0 0 24 24" fill="none" xmlns="http://www.w3.org/2000/svg">
<path fill-rule="evenodd" clip-rule="evenodd" d="M5 4C4.44772 4 4 4.44772 4 5V19C4 19.5523 3.55228 20 3 20C2.44772 20 2 19.5523 2 19V5C2 3.34315 3.34315 2 5 2H19C20.6569 2 22 3.34315 22 5V11C22 11.5523 21.5523 12 21 12C20.4477 12 20 11.5523 20 11V5C20 4.44771 19.5523 4 19 4H5ZM15.2929 9.29289C15.6834 8.90237 16.3166 8.90237 16.7071 9.29289L21.7071 14.2929C21.8946 14.4804 22 14.7348 22 15V19C22 20.6569 20.6569 22 19 22H5C4.59554 22 4.2309 21.7564 4.07612 21.3827C3.92134 21.009 4.0069 20.5789 4.29289 20.2929L15.2929 9.29289ZM7.41421 20H19C19.5523 20 20 19.5523 20 19V15.4142L16 11.4142L7.41421 20Z" fill="black"/>
<path fill-rule="evenodd" clip-rule="evenodd" d="M8.5 8C8.22386 8 8 8.22386 8 8.5C8 8.77614 8.22386 9 8.5 9C8.77614 9 9 8.77614 9 8.5C9 8.22386 8.77614 8 8.5 8ZM6 8.5C6 7.11929 7.11929 6 8.5 6C9.88071 6 11 7.11929 11 8.5C11 9.88071 9.88071 11 8.5 11C7.11929 11 6 9.88071 6 8.5Z" fill="black"/>
</svg>
