<svg width="24" height="24" viewBox="0 0 24 24" fill="none" xmlns="http://www.w3.org/2000/svg">
<path fill-rule="evenodd" clip-rule="evenodd" d="M20 4H4C2.89543 4 2 4.89543 2 6V18C2 19.1046 2.89543 20 4 20H20C21.1046 20 22 19.1046 22 18V6C22 4.89543 21.1046 4 20 4ZM4 2C1.79086 2 0 3.79086 0 6V18C0 20.2091 1.79086 22 4 22H20C22.2091 22 24 20.2091 24 18V6C24 3.79086 22.2091 2 20 2H4Z" fill="black"/>
<path fill-rule="evenodd" clip-rule="evenodd" d="M19 8C19 8.55228 18.4404 9 17.75 9L10.25 9C9.55964 9 9 8.55228 9 8C9 7.44771 9.55964 7 10.25 7L17.75 7C18.4404 7 19 7.44772 19 8Z" fill="black"/>
</svg>
