<svg width="24" height="24" viewBox="0 0 24 24" fill="none" xmlns="http://www.w3.org/2000/svg">
<path fill-rule="evenodd" clip-rule="evenodd" d="M7.29289 2.29289C7.68342 1.90237 8.31658 1.90237 8.70711 2.29289L12 5.58579L15.2929 2.29289C15.6834 1.90237 16.3166 1.90237 16.7071 2.29289C17.0976 2.68342 17.0976 3.31658 16.7071 3.70711L12.7071 7.70711C12.3166 8.09763 11.6834 8.09763 11.2929 7.70711L7.29289 3.70711C6.90237 3.31658 6.90237 2.68342 7.29289 2.29289Z" fill="black"/>
<path fill-rule="evenodd" clip-rule="evenodd" d="M1 12C1 11.4477 1.44772 11 2 11H22C22.5523 11 23 11.4477 23 12C23 12.5523 22.5523 13 22 13H2C1.44772 13 1 12.5523 1 12Z" fill="black"/>
<path fill-rule="evenodd" clip-rule="evenodd" d="M7.29289 21.7071C6.90237 21.3166 6.90237 20.6834 7.29289 20.2929L11.2929 16.2929C11.6834 15.9024 12.3166 15.9024 12.7071 16.2929L16.7071 20.2929C17.0976 20.6834 17.0976 21.3166 16.7071 21.7071C16.3166 22.0976 15.6834 22.0976 15.2929 21.7071L12 18.4142L8.70711 21.7071C8.31658 22.0976 7.68342 22.0976 7.29289 21.7071Z" fill="black"/>
</svg>
