<svg width="24" height="24" viewBox="0 0 24 24" fill="none" xmlns="http://www.w3.org/2000/svg">
<path fill-rule="evenodd" clip-rule="evenodd" d="M12 3C7.86589 3 4.18309 6.30734 3.16851 10.2493C3.03085 10.7841 2.48567 11.1061 1.95081 10.9684C1.41596 10.8308 1.09397 10.2856 1.23163 9.75074C2.43727 5.06653 6.81498 1 12 1C18.0752 1 23 5.92487 23 12C23 18.0751 18.0752 23 12 23C6.67716 23 2.23934 19.2203 1.22006 14.1989C1.11019 13.6577 1.45989 13.1299 2.00114 13.02C2.54238 12.9101 3.07022 13.2598 3.18008 13.8011C4.01389 17.9087 7.64707 21 12 21C16.9706 21 21 16.9706 21 12C21 7.02944 16.9706 3 12 3Z" fill="black"/>
<circle cx="12" cy="12" r="6" stroke="black" stroke-width="2"/>
<circle cx="12" cy="12" r="1" stroke="black" stroke-width="2"/>
</svg>
