<svg width="24" height="24" viewBox="0 0 24 24" fill="none" xmlns="http://www.w3.org/2000/svg">
<path d="M11 12C11 12 8 9 7.12 8.12C7.12 8.12 6.65685 9 5 9C3.34315 9 2 7.65685 2 6C2 4.34315 3.34315 3 5 3C6.19212 3 7.22184 3.69534 7.7057 4.70256M11 12L7.12718 15.8846C7.68513 16.4293 8 17.1586 8 18C8 19.6569 6.65685 21 5 21C3.34315 21 2 19.6569 2 18C2 16.7563 2.75682 15.6893 3.83505 15.2346M11 12C12.6265 10.3735 18.7784 1.77836 22 5L15 12L22 19C18.8929 22.1071 14.5205 15.6894 13 14" stroke="black" stroke-width="2" stroke-linecap="round" stroke-linejoin="round"/>
</svg>
