<svg width="24" height="24" viewBox="0 0 24 24" fill="none" xmlns="http://www.w3.org/2000/svg">
<path d="M19.5 21V19C18.846 19 18.2099 18.7863 17.6885 18.3913C17.1672 17.9964 16.7892 17.4419 16.6121 16.8123C16.435 16.1827 16.4685 15.5125 16.7075 14.9037C16.9465 14.2949 17.3779 13.7809 17.936 13.4399C18.4086 13.1512 18.9501 13 19.5 13C19.5996 13 19.6994 13.005 19.7992 13.015C20.4499 13.0802 21.0616 13.3563 21.5409 13.8012C22.0203 14.2462 22.3411 14.8356 22.4545 15.4797C22.568 16.1238 22.4678 16.7874 22.1693 17.3693M4.5 21V19C3.84597 19 3.20985 18.7863 2.68851 18.3913C2.16717 17.9964 1.78918 17.4419 1.61208 16.8123C1.43498 16.1827 1.46848 15.5125 1.70748 14.9037C1.94648 14.2949 2.37789 13.7809 2.93602 13.4399C3.40858 13.1512 3.95007 13 4.5 13C4.59957 13 4.69941 13.005 4.79917 13.015C5.44994 13.0802 6.06158 13.3563 6.54093 13.8012C7.02029 14.2462 7.34111 14.8356 7.45454 15.4797C7.56797 16.1238 7.4678 16.7874 7.16927 17.3693M11.8879 3V5C11.2339 5 10.5978 5.21373 10.0764 5.60866C9.5551 6.00358 9.1771 6.55806 9 7.18766C8.82291 7.81726 8.85641 8.48748 9.09541 9.09628C9.33441 9.70508 9.76582 10.2191 10.3239 10.5601C10.7965 10.8488 11.338 11 11.8879 11C11.9875 11 12.0873 10.995 12.1871 10.985C12.8379 10.9198 13.4495 10.6437 13.9289 10.1988C14.4082 9.75383 14.729 9.16442 14.8425 8.5203C14.9559 7.87617 14.8557 7.21263 14.5572 6.6307M19.5 10V3M4.5 10V3M11.8879 14L11.8879 21" stroke="black" stroke-width="2" stroke-linecap="round" stroke-linejoin="round"/>
</svg>
