<svg width="24" height="24" viewBox="0 0 24 24" fill="none" xmlns="http://www.w3.org/2000/svg">
<path d="M12 11C14.2091 11 16 9.20914 16 7C16 4.79086 14.2091 3 12 3C9.79086 3 8 4.79086 8 7C8 9.20914 9.79086 11 12 11Z" stroke="black" stroke-width="2" stroke-linecap="round" stroke-linejoin="round"/>
<path d="M16.4999 21.1422C17.888 20.8923 18.9884 20.5116 19.5 20C19.5718 19.3531 19.5 18.3333 19.5 18.3333C19.5 17.4493 19.0785 16.6014 18.3284 15.9763C15.9594 14.0022 8.0405 14.0022 5.67154 15.9763C4.9214 16.6014 4.49997 17.4493 4.49997 18.3333C4.49997 18.3333 4.42809 19.3531 4.49997 20C5.01154 20.5116 6.11195 20.8923 7.49997 21.1422" stroke="black" stroke-width="2" stroke-linecap="round" stroke-linejoin="round"/>
</svg>
