<svg width="82" height="82" viewBox="0 0 82 82" fill="none" xmlns="http://www.w3.org/2000/svg">
<circle cx="41" cy="41" r="41" fill="#F3F6F8"/>
<path fill-rule="evenodd" clip-rule="evenodd" d="M62 54.953C55.8197 61.158 47.2557 65 37.7916 65C31.2723 65 25.1802 63.1769 20 60.0143C23.2586 56.7843 27.52 54.6715 32.1364 54.0457C32.887 53.8977 33.7127 54.1196 34.3132 54.5637C37.4658 56.8577 41.2188 58.0417 45.122 58.0417C49.0253 58.0417 52.7782 56.8577 55.9308 54.5637C56.5314 54.1196 57.357 53.9717 58.1076 54.0457C59.4429 54.2267 60.7448 54.5321 62 54.953Z" fill="#293148" fill-opacity="0.45"/>
<path d="M44.3728 17C34.7439 17 26.8728 24.8711 26.8728 34.5C26.8728 44.1289 34.7439 52 44.3728 52C54.0017 52 61.8728 44.1289 61.8728 34.5C61.8728 24.8711 54.0017 17 44.3728 17Z" fill="#293148" fill-opacity="0.45"/>
</svg>
